# xmcd
#
# Track frame offsets:
#	150
#	16073
#	35173
#	52703
#	71130
#	86321
#	106388
#	119736
#	131465
#	153951
#	173256
#	188563
#	203653
#
# Disc length: 2855 seconds
# Revision: 0
# Processed by: cddbd v1.5.2PL0 Copyright (c) Steve Scherf et al.
# Submitted via: dBpowerAMP V12.0
#
DISCID=9c0b250d
DTITLE=Stormcellar - Hired Guns and Borrowed Glory
DYEAR=2012
DGENRE=Blues
TTITLE0=Black Crow
TTITLE1=Texas Rosie
TTITLE2=Same Old Blues
TTITLE3=Suit Yourself
TTITLE4=Even In A Lifetime
TTITLE5=Wine To Water (South Of The Border)
TTITLE6=Road Rise Up
TTITLE7=Country Radio
TTITLE8=Light In The Distance
TTITLE9=Feel So Blue
TTITLE10=Hard Times
TTITLE11=She Keeps You Moving On
TTITLE12=Sweet As Pie
EXTD=
EXTT0=
EXTT1=
EXTT2=
EXTT3=
EXTT4=
EXTT5=
EXTT6=
EXTT7=
EXTT8=
EXTT9=
EXTT10=
EXTT11=
EXTT12=
PLAYORDER=
